<svg version="1.1" viewBox="0.0 0.0 163.99475065616798 100.0" fill="none" stroke="none" stroke-linecap="square" stroke-miterlimit="10" xmlns:xlink="http://www.w3.org/1999/xlink" xmlns="http://www.w3.org/2000/svg"><clipPath id="p.0"><path d="m0 0l163.99475 0l0 100.0l-163.99475 0l0 -100.0z" clip-rule="nonzero"/></clipPath><g clip-path="url(#p.0)"><path fill="#000000" fill-opacity="0.0" d="m0 0l163.99475 0l0 100.0l-163.99475 0z" fill-rule="evenodd"/><path fill="#000000" fill-opacity="0.0" d="m-4.538058 -12.692913l173.07086 0l0 77.921265l-173.07086 0z" fill-rule="evenodd"/><path fill="#41a913" d="m32.352566 20.763332q-2.265623 -0.78125 -4.218748 -0.78125q-3.390625 0 -5.609375 2.578125q-2.203125 2.578125 -2.203125 6.515625q0 1.0625 0.203125 2.1875l8.515625 0l0 6.25l-8.515625 0l0 35.593746l-7.421875 0l0 -35.593746l-6.0937505 0l0 -6.25l6.0937505 0q0 -8.0 3.9375 -12.5625q3.953125 -4.578125 10.4375 -4.578125q3.234375 0 6.953123 1.171875l-2.078125 5.46875zm4.2265625 31.328125q0 -9.6875 5.203125 -15.640625q5.21875 -5.96875 13.734375 -5.96875q8.984379 0 13.937504 5.734375q4.96875 5.71875 4.96875 15.875q0 10.109375 -5.078125 15.953121q-5.078125 5.84375 -13.828129 5.84375q-8.9375 0 -13.9375 -5.890625q-5.0 -5.906246 -5.0 -15.906246zm7.8125 0q0 15.734371 11.125 15.734371q5.203125 0 8.140625 -4.218746q2.9531288 -4.21875 2.9531288 -11.515625q0 -15.546875 -11.093754 -15.546875q-5.078125 0 -8.109375 4.140625q-3.015625 4.140625 -3.015625 11.40625zm36.320316 32.468746l4.03125 -5.9375q6.484375 4.328125 11.953125 4.328125q5.03125 0 7.9375 -1.734375q2.921875 -1.734375 2.921875 -4.3125q0 -5.09375 -7.34375 -5.09375q-1.25 0 -4.53125 0.625q-3.28125 0.625 -5.125 0.625q-8.90625 0 -8.90625 -6.71875q0 -2.0625 2.09375 -3.7343712q2.09375 -1.6875 5.171875 -2.4375q-8.828125 -4.140625 -8.828125 -14.375q0 -6.5625 4.5625 -10.9375q4.578125 -4.375 11.296875 -4.375q6.171875 0 9.65625 2.546875l3.703125 -4.453125l4.84375 4.5625l-4.453125 3.359375q2.859375 3.71875 2.859375 9.6875q0 6.328125 -3.953125 10.625q-3.9375 4.296875 -10.34375 4.921875l-6.140625 0.625q-1.09375 0.125 -2.9375 0.84375q-1.828125 0.71875 -1.828125 1.8906212q0 1.609375 3.828125 1.609375q1.6875 0 5.234375 -0.609375q3.5625 -0.609375 5.28125 -0.609375q6.171875 0 9.625 2.953125q3.453125 2.953125 3.453125 8.1875q0 5.78125 -5.171875 9.328125q-5.171875 3.5625 -13.109375 3.5625q-4.0625 0 -8.5625 -1.453125q-4.484375 -1.4375 -7.21875 -3.5zm15.75 -48.093746q-3.875 0 -6.3125 2.734375q-2.4375 2.734375 -2.4375 6.640625q0 4.375 2.359375 7.25q2.359375 2.859375 6.390625 2.859375q3.9375 0 6.15625 -2.78125q2.234375 -2.796875 2.234375 -7.328125q0 -3.90625 -2.40625 -6.640625q-2.390625 -2.734375 -5.984375 -2.734375zm24.40625 48.093746l4.03125 -5.9375q6.484375 4.328125 11.953125 4.328125q5.03125 0 7.9375 -1.734375q2.921875 -1.734375 2.921875 -4.3125q0 -5.09375 -7.34375 -5.09375q-1.25 0 -4.53125 0.625q-3.28125 0.625 -5.125 0.625q-8.90625 0 -8.90625 -6.71875q0 -2.0625 2.09375 -3.7343712q2.09375 -1.6875 5.171875 -2.4375q-8.828125 -4.140625 -8.828125 -14.375q0 -6.5625 4.5625 -10.9375q4.578125 -4.375 11.296875 -4.375q6.171875 0 9.65625 2.546875l3.703125 -4.453125l4.84375 4.5625l-4.453125 3.359375q2.859375 3.71875 2.859375 9.6875q0 6.328125 -3.953125 10.625q-3.9375 4.296875 -10.34375 4.921875l-6.140625 0.625q-1.09375 0.125 -2.9375 0.84375q-1.828125 0.71875 -1.828125 1.8906212q0 1.609375 3.828125 1.609375q1.6875 0 5.234375 -0.609375q3.5625 -0.609375 5.28125 -0.609375q6.171875 0 9.625 2.953125q3.453125 2.953125 3.453125 8.1875q0 5.78125 -5.171875 9.328125q-5.171875 3.5625 -13.109375 3.5625q-4.0625 0 -8.5625 -1.453125q-4.484375 -1.4375 -7.21875 -3.5zm15.75 -48.093746q-3.875 0 -6.3125 2.734375q-2.4375 2.734375 -2.4375 6.640625q0 4.375 2.359375 7.25q2.359375 2.859375 6.390625 2.859375q3.9375 0 6.15625 -2.78125q2.234375 -2.796875 2.234375 -7.328125q0 -3.90625 -2.40625 -6.640625q-2.390625 -2.734375 -5.984375 -2.734375z" fill-rule="nonzero"/></g></svg>